# xmcd CD database file
#
# Track frame offsets:
#	150
#	9174
#	22976
#	34152
#	52346
#	66112
#	76647
#	90439
#	104261
#	120626
#	135958
#	152690
#	164935
#	182709
#
# Disc length: 2715 seconds
#
# Revision: 0
# Processed by: cddbd v1.5.2PL0 Copyright (c) Steve Scherf et al.
# Submitted via: CDex 1.76
#
DISCID=a70a990e
DTITLE=Al Hirt - Hot 'N' Spicy
DYEAR=2003
DGENRE=Jazz
TTITLE0=Java
TTITLE1=Boy Meets Horn
TTITLE2=Mack The Knife
TTITLE3=New Orleans
TTITLE4=Look Down That Lonesome Road
TTITLE5=The Best Things In Life Are Free
TTITLE6=Feels So Good
TTITLE7=And The Angels Sing
TTITLE8=A Night In Tunisia
TTITLE9=Tenderly
TTITLE10=I Can't Get Started
TTITLE11=Tuxedo Junction
TTITLE12=When It's Sleepy Time
TTITLE13=Down South, Hello Dolly
EXTD=YEAR: 2003
EXTT0=
EXTT1=
EXTT2=
EXTT3=
EXTT4=
EXTT5=
EXTT6=
EXTT7=
EXTT8=
EXTT9=
EXTT10=
EXTT11=
EXTT12=
EXTT13=
PLAYORDER=
